PowerhouseFilarMono-Bold.ufo
<glyph name="exclam" format="2">
  <advance width="255"/>
  <unicode hex="0021"/>
  <outline>
    <contour>
      <point x="207" y="700" type="line"/>
      <point x="48" y="700" type="line"/>
      <point x="83" y="217" type="line"/>
      <point x="172" y="217" type="line"/>
    </contour>
    <component base="period" xOffset="-5"/>
  </outline>
</glyph>
<glyph name="quotesingle" format="2">
  <advance width="249"/>
  <unicode hex="0027"/>
  <outline>
    <contour>
      <point x="45" y="700" type="line"/>
      <point x="71" y="364" type="line"/>
      <point x="177" y="364" type="line"/>
      <point x="203" y="700" type="line"/>
    </contour>
  </outline>
</glyph>
<glyph name="two" format="2">
  <advance width="545"/>
  <unicode hex="0032"/>
  <outline>
    <contour>
      <point x="518" y="0" type="line"/>
      <point x="518" y="120" type="line"/>
      <point x="124" y="120" type="line"/>
      <point x="157" y="57" type="line"/>
      <point x="374" y="229"/>
      <point x="513" y="343"/>
      <point x="513" y="493" type="curve" smooth="yes"/>
      <point x="513" y="599"/>
      <point x="441" y="712"/>
      <point x="276" y="712" type="curve" smooth="yes"/>
      <point x="120" y="712"/>
      <point x="33" y="608"/>
      <point x="33" y="502" type="curve" smooth="yes"/>
      <point x="33" y="482"/>
      <point x="36" y="447"/>
      <point x="55" y="414" type="curve"/>
      <point x="190" y="434" type="line"/>
      <point x="179" y="456"/>
      <point x="175" y="473"/>
      <point x="175" y="491" type="curve" smooth="yes"/>
      <point x="175" y="542"/>
      <point x="209" y="586"/>
      <point x="274" y="586" type="curve" smooth="yes"/>
      <point x="341" y="586"/>
      <point x="370" y="539"/>
      <point x="370" y="489" type="curve" smooth="yes"/>
      <point x="370" y="388"/>
      <point x="253" y="304"/>
      <point x="36" y="117" type="curve"/>
      <point x="36" y="0" type="line"/>
    </contour>
  </outline>
</glyph>
<glyph name="A" format="2">
  <advance width="500"/>
  <unicode hex="0041"/>
  <anchor x="240" y="700" name="center"/>
  <anchor x="502" y="0" name="ogonek"/>
  <outline>
    <contour>
      <point x="160" y="272" type="line"/>
      <point x="160" y="150" type="line"/>
      <point x="339" y="150" type="line"/>
      <point x="339" y="272" type="line"/>
    </contour>
    <contour>
      <point x="355" y="0" type="line"/>
      <point x="502" y="0" type="line"/>
      <point x="315" y="700" type="line"/>
      <point x="159" y="700" type="line"/>
      <point x="-2" y="0" type="line"/>
      <point x="144" y="0" type="line"/>
      <point x="278" y="644" type="line"/>
      <point x="195" y="644" type="line"/>
    </contour>
  </outline>
</glyph>
<glyph name="B" format="2">
  <advance width="500"/>
  <unicode hex="0042"/>
  <guideline x="333.1357254290173" y="1.5620124804994755" angle="90" name="center" identifier="YlB84gsj3O"/>
  <outline>
    <contour>
      <point x="67" y="700" type="line"/>
      <point x="67" y="0" type="line"/>
      <point x="216" y="0" type="line"/>
      <point x="216" y="700" type="line"/>
    </contour>
    <contour>
      <point x="237" y="0" type="line" smooth="yes"/>
      <point x="394.0" y="0.0"/>
      <point x="478" y="97"/>
      <point x="478" y="209" type="curve" smooth="yes"/>
      <point x="478" y="304"/>
      <point x="418" y="350"/>
      <point x="359" y="374" type="curve"/>
      <point x="359" y="356" type="line"/>
      <point x="413" y="374"/>
      <point x="463" y="420"/>
      <point x="463" y="503" type="curve" smooth="yes"/>
      <point x="463" y="613"/>
      <point x="383.0" y="700.0"/>
      <point x="237" y="700" type="curve" smooth="yes"/>
      <point x="132" y="700" type="line"/>
      <point x="132" y="577" type="line"/>
      <point x="226" y="577" type="line" smooth="yes"/>
      <point x="279.0" y="577.0"/>
      <point x="319" y="551"/>
      <point x="319" y="500" type="curve" smooth="yes"/>
      <point x="319" y="448"/>
      <point x="283.0" y="420.0"/>
      <point x="230" y="420" type="curve" smooth="yes"/>
      <point x="131" y="420" type="line"/>
      <point x="131" y="298" type="line"/>
      <point x="227" y="298" type="line" smooth="yes"/>
      <point x="278.0" y="298.0"/>
      <point x="329" y="272"/>
      <point x="329" y="210" type="curve" smooth="yes"/>
      <point x="329" y="149"/>
      <point x="282.0" y="123.0"/>
      <point x="227" y="123" type="curve" smooth="yes"/>
      <point x="132" y="123" type="line"/>
      <point x="132" y="0" type="line"/>
    </contour>
  </outline>
</glyph>
<glyph name="C" format="2">
  <advance width="500"/>
  <unicode hex="0043"/>
  <guideline x="393" y="712" angle="90" name="center" identifier="rB6evpv1cN"/>
  <outline>
    <contour>
      <point x="482" y="486.0" type="line"/>
      <point x="455" y="651.0"/>
      <point x="400" y="712.0"/>
      <point x="267" y="712.0" type="curve" smooth="yes"/>
      <point x="127" y="712"/>
      <point x="26" y="562.0"/>
      <point x="26" y="350.0" type="curve" smooth="yes"/>
      <point x="26" y="138.0"/>
      <point x="127" y="-12.0"/>
      <point x="267" y="-12.0" type="curve" smooth="yes"/>
      <point x="378" y="-12.0"/>
      <point x="454" y="42.0"/>
      <point x="483" y="216.0" type="curve"/>
      <point x="362" y="257.0" type="line"/>
      <point x="357" y="165.0"/>
      <point x="340" y="116.0"/>
      <point x="267" y="116.0" type="curve" smooth="yes"/>
      <point x="223" y="116"/>
      <point x="181" y="199.0"/>
      <point x="181" y="346.0" type="curve" smooth="yes"/>
      <point x="181" y="493.0"/>
      <point x="223" y="584"/>
      <point x="278" y="584.0" type="curve"/>
      <point x="339" y="584.0"/>
      <point x="351" y="521.0"/>
      <point x="364" y="444.0" type="curve"/>
    </contour>
  </outline>
</glyph>
<glyph name="underscore" format="2">
  <advance width="426"/>
  <unicode hex="005F"/>
  <outline>
    <contour>
      <point x="8" y="-161" type="line"/>
      <point x="418" y="-161" type="line"/>
      <point x="418" y="-49" type="line"/>
      <point x="8" y="-49" type="line"/>
    </contour>
  </outline>
</glyph>
<glyph name="m" format="2">
  <advance width="838"/>
  <unicode hex="006D"/>
  <outline>
    <contour>
      <point x="441" y="294" type="line"/>
      <point x="491" y="294" type="line"/>
      <point x="491" y="354"/>
      <point x="526" y="391"/>
      <point x="577" y="391" type="curve" smooth="yes"/>
      <point x="629" y="391"/>
      <point x="650.0" y="354.0"/>
      <point x="650" y="303" type="curve" smooth="yes"/>
      <point x="650" y="0" type="line"/>
      <point x="790" y="0" type="line"/>
      <point x="790" y="335" type="line" smooth="yes"/>
      <point x="790" y="443"/>
      <point x="732" y="512"/>
      <point x="635" y="512" type="curve" smooth="yes"/>
      <point x="551.0" y="512.0"/>
      <point x="486" y="461"/>
      <point x="452" y="402" type="curve"/>
      <point x="441" y="402" type="line"/>
    </contour>
    <contour>
      <point x="52" y="500" type="line"/>
      <point x="52" y="0" type="line"/>
      <point x="192" y="0" type="line"/>
      <point x="192" y="294" type="line" smooth="yes"/>
      <point x="192.0" y="354.0"/>
      <point x="227" y="391"/>
      <point x="278" y="391" type="curve" smooth="yes"/>
      <point x="330" y="391"/>
      <point x="351.0" y="354.0"/>
      <point x="351" y="303" type="curve" smooth="yes"/>
      <point x="351" y="0" type="line"/>
      <point x="491" y="0" type="line"/>
      <point x="491" y="335" type="line" smooth="yes"/>
      <point x="491" y="443"/>
      <point x="433" y="512"/>
      <point x="337" y="512" type="curve" smooth="yes"/>
      <point x="252.0" y="512.0"/>
      <point x="197" y="460"/>
      <point x="169" y="402" type="curve"/>
      <point x="192" y="402" type="line"/>
      <point x="192" y="500" type="line"/>
    </contour>
  </outline>
</glyph>
<glyph name="icircumflex" format="2">
  <advance width="250"/>
  <unicode hex="00EE"/>
  <outline>
    <contour>
      <point x="59" y="700" type="line"/>
      <point x="-41" y="564" type="line"/>
      <point x="67" y="564" type="line"/>
      <point x="173" y="662" type="line"/>
      <point x="77" y="662" type="line"/>
      <point x="183" y="564" type="line"/>
      <point x="291" y="564" type="line"/>
      <point x="191" y="700" type="line"/>
    </contour>
    <component base="dotlessi"/>
  </outline>
</glyph>
<glyph name="oslash" format="2">
  <advance width="566"/>
  <unicode hex="00F8"/>
  <anchor x="283" y="490" name="top"/>
  <outline>
    <contour>
      <point x="26" y="24" type="line"/>
      <point x="93" y="-32" type="line"/>
      <point x="540" y="466" type="line"/>
      <point x="473" y="522" type="line"/>
    </contour>
    <contour>
      <point x="283" y="-12" type="curve" smooth="yes"/>
      <point x="427" y="-12"/>
      <point x="533" y="91"/>
      <point x="533" y="250" type="curve" smooth="yes"/>
      <point x="533" y="409"/>
      <point x="427" y="512"/>
      <point x="283" y="512" type="curve" smooth="yes"/>
      <point x="139" y="512"/>
      <point x="33" y="409"/>
      <point x="33" y="250" type="curve" smooth="yes"/>
      <point x="33" y="91"/>
      <point x="139" y="-12"/>
    </contour>
    <contour>
      <point x="283" y="396" type="curve" smooth="yes"/>
      <point x="352" y="396"/>
      <point x="392" y="344"/>
      <point x="392" y="250" type="curve" smooth="yes"/>
      <point x="392" y="156"/>
      <point x="352" y="104"/>
      <point x="283" y="104" type="curve" smooth="yes"/>
      <point x="214" y="104"/>
      <point x="174" y="156"/>
      <point x="174" y="250" type="curve" smooth="yes"/>
      <point x="174" y="344"/>
      <point x="214" y="396"/>
    </contour>
  </outline>
</glyph>
<glyph name="eogonek" format="2">
  <advance width="548"/>
  <unicode hex="0119"/>
  <outline>
    <contour>
      <point x="305" y="-203" type="curve" smooth="yes"/>
      <point x="328" y="-203"/>
      <point x="363" y="-200"/>
      <point x="388" y="-193" type="curve"/>
      <point x="388" y="-106" type="line"/>
      <point x="368" y="-111"/>
      <point x="352" y="-114"/>
      <point x="334" y="-114" type="curve" smooth="yes"/>
      <point x="304" y="-114"/>
      <point x="289" y="-104"/>
      <point x="289" y="-85" type="curve" smooth="yes"/>
      <point x="289" y="-56"/>
      <point x="320" y="-27"/>
      <point x="391" y="6" type="curve" smooth="yes"/>
      <point x="453" y="35"/>
      <point x="497" y="79"/>
      <point x="514" y="138" type="curve"/>
      <point x="388" y="172" type="line"/>
      <point x="370" y="124"/>
      <point x="337" y="98"/>
      <point x="284" y="98" type="curve" smooth="yes"/>
      <point x="224" y="98"/>
      <point x="187" y="131"/>
      <point x="176" y="204" type="curve"/>
      <point x="521" y="204" type="line"/>
      <point x="521" y="245" type="line" smooth="yes"/>
      <point x="521" y="404"/>
      <point x="428" y="512"/>
      <point x="283" y="512" type="curve" smooth="yes"/>
      <point x="138" y="512"/>
      <point x="33" y="409"/>
      <point x="33" y="250" type="curve" smooth="yes"/>
      <point x="33" y="91"/>
      <point x="137" y="-12"/>
      <point x="282" y="-12" type="curve" smooth="yes"/>
      <point x="286" y="-12"/>
      <point x="290" y="-12"/>
      <point x="292" y="-12" type="curve"/>
      <point x="265" y="9" type="line"/>
      <point x="209" y="-29"/>
      <point x="176" y="-68"/>
      <point x="176" y="-116" type="curve" smooth="yes"/>
      <point x="176" y="-170"/>
      <point x="220" y="-203"/>
    </contour>
    <contour>
      <point x="283" y="400" type="curve" smooth="yes"/>
      <point x="336" y="400"/>
      <point x="367" y="369"/>
      <point x="379" y="308" type="curve"/>
      <point x="179" y="308" type="line"/>
      <point x="193" y="370"/>
      <point x="230" y="400"/>
    </contour>
  </outline>
</glyph>
<glyph name="hbar" format="2">
  <advance width="556"/>
  <unicode hex="0127"/>
  <outline>
    <contour>
      <point x="314" y="547" type="line"/>
      <point x="314" y="627" type="line"/>
      <point x="-4" y="627" type="line"/>
      <point x="-4" y="547" type="line"/>
    </contour>
    <component base="h"/>
  </outline>
</glyph>
<glyph name="dotlessi" format="2">
  <advance width="250"/>
  <unicode hex="0131"/>
  <anchor x="195" y="0" name="ogonek"/>
  <outline>
    <contour>
      <point x="55" y="500" type="line"/>
      <point x="55" y="0" type="line"/>
      <point x="195" y="0" type="line"/>
      <point x="195" y="500" type="line"/>
    </contour>
  </outline>
</glyph>
<glyph name="Uogonek" format="2">
  <advance width="736"/>
  <unicode hex="0172"/>
  <outline>
    <contour>
      <point x="404" y="-203" type="curve" smooth="yes"/>
      <point x="427" y="-203"/>
      <point x="462" y="-200"/>
      <point x="487" y="-193" type="curve"/>
      <point x="487" y="-106" type="line"/>
      <point x="467" y="-111"/>
      <point x="451" y="-114"/>
      <point x="433" y="-114" type="curve" smooth="yes"/>
      <point x="403" y="-114"/>
      <point x="388" y="-104"/>
      <point x="388" y="-85" type="curve" smooth="yes"/>
      <point x="388" y="-57"/>
      <point x="422" y="-25"/>
      <point x="496" y="4" type="curve" smooth="yes"/>
      <point x="611" y="49"/>
      <point x="672" y="139"/>
      <point x="672" y="269" type="curve" smooth="yes"/>
      <point x="672" y="700" type="line"/>
      <point x="527" y="700" type="line"/>
      <point x="527" y="277" type="line" smooth="yes"/>
      <point x="527" y="181"/>
      <point x="468" y="117"/>
      <point x="369" y="117" type="curve" smooth="yes"/>
      <point x="270" y="117"/>
      <point x="210" y="181"/>
      <point x="210" y="277" type="curve" smooth="yes"/>
      <point x="210" y="700" type="line"/>
      <point x="64" y="700" type="line"/>
      <point x="64" y="269" type="line" smooth="yes"/>
      <point x="64" y="110"/>
      <point x="163" y="-11"/>
      <point x="365" y="-11" type="curve" smooth="yes"/>
      <point x="368" y="-11"/>
      <point x="372" y="-11"/>
      <point x="375" y="-11" type="curve"/>
      <point x="370" y="10" type="line"/>
      <point x="308" y="-22"/>
      <point x="275" y="-69"/>
      <point x="275" y="-116" type="curve" smooth="yes"/>
      <point x="275.0" y="-170.0"/>
      <point x="319" y="-203"/>
    </contour>
  </outline>
</glyph>
<glyph name="Dhook" format="2">
  <advance width="896"/>
  <unicode hex="018A"/>
  <outline>
    <contour>
      <point x="279" y="123" type="line"/>
      <point x="279" y="0" type="line"/>
      <point x="500" y="0" type="line" smooth="yes"/>
      <point x="736" y="0"/>
      <point x="858" y="149"/>
      <point x="858" y="350" type="curve" smooth="yes"/>
      <point x="858" y="551"/>
      <point x="736" y="700"/>
      <point x="500" y="700" type="curve" smooth="yes"/>
      <point x="279" y="700" type="line"/>
      <point x="279" y="577" type="line"/>
      <point x="493" y="577" type="line" smooth="yes"/>
      <point x="614" y="577"/>
      <point x="703" y="506"/>
      <point x="703" y="350" type="curve" smooth="yes"/>
      <point x="703" y="194"/>
      <point x="614" y="123"/>
      <point x="493" y="123" type="curve" smooth="yes"/>
    </contour>
    <contour>
      <point x="216" y="0" type="line"/>
      <point x="366" y="0" type="line"/>
      <point x="366" y="700" type="line"/>
      <point x="216" y="700" type="line"/>
    </contour>
    <contour>
      <point x="303" y="700" type="line"/>
      <point x="210" y="700" type="line" smooth="yes"/>
      <point x="50" y="700"/>
      <point x="-13" y="588"/>
      <point x="-13" y="488" type="curve" smooth="yes"/>
      <point x="-13" y="437"/>
      <point x="4" y="401"/>
      <point x="23" y="371" type="curve"/>
      <point x="162" y="376" type="line"/>
      <point x="140" y="411"/>
      <point x="127" y="445"/>
      <point x="127" y="483" type="curve" smooth="yes"/>
      <point x="127" y="532"/>
      <point x="156" y="576"/>
      <point x="214" y="576" type="curve" smooth="yes"/>
      <point x="303" y="576" type="line"/>
    </contour>
  </outline>
</glyph>
<glyph name="Eopen" format="2">
  <advance width="647"/>
  <unicode hex="0190"/>
  <outline>
    <contour>
      <point x="631" y="218" type="curve"/>
      <point x="482" y="212" type="line"/>
      <point x="484" y="146"/>
      <point x="439" y="107"/>
      <point x="329" y="107" type="curve" smooth="yes"/>
      <point x="226" y="107"/>
      <point x="176" y="151"/>
      <point x="176" y="207" type="curve" smooth="yes"/>
      <point x="176" y="266"/>
      <point x="234" y="303"/>
      <point x="339" y="303" type="curve" smooth="yes"/>
      <point x="419" y="303" type="line"/>
      <point x="419" y="421" type="line"/>
      <point x="340" y="421" type="line" smooth="yes"/>
      <point x="252" y="421"/>
      <point x="195" y="448"/>
      <point x="195" y="504" type="curve" smooth="yes"/>
      <point x="195" y="557"/>
      <point x="247" y="594"/>
      <point x="333" y="594" type="curve" smooth="yes"/>
      <point x="434" y="594"/>
      <point x="474" y="550"/>
      <point x="475" y="492" type="curve"/>
      <point x="624" y="486" type="line"/>
      <point x="626" y="631"/>
      <point x="505" y="712"/>
      <point x="331" y="712" type="curve" smooth="yes"/>
      <point x="156" y="712"/>
      <point x="40" y="627"/>
      <point x="40" y="510" type="curve" smooth="yes"/>
      <point x="40" y="422"/>
      <point x="107" y="378"/>
      <point x="176" y="362" type="curve"/>
      <point x="176" y="368" type="line"/>
      <point x="81" y="351"/>
      <point x="23" y="293"/>
      <point x="23" y="203" type="curve" smooth="yes"/>
      <point x="23" y="73"/>
      <point x="138" y="-12"/>
      <point x="331" y="-12" type="curve" smooth="yes"/>
      <point x="509" y="-12"/>
      <point x="636" y="60"/>
    </contour>
  </outline>
</glyph>
<glyph name="fhook" format="2">
  <advance width="485"/>
  <unicode hex="0192"/>
  <outline>
    <contour>
      <point x="94" y="366" type="line"/>
      <point x="436" y="366" type="line"/>
      <point x="436" y="470" type="line"/>
      <point x="94" y="470" type="line"/>
    </contour>
    <contour>
      <point x="266" y="149" type="curve" smooth="yes"/>
      <point x="359" y="542" type="line" smooth="yes"/>
      <point x="369" y="583"/>
      <point x="391" y="600"/>
      <point x="432" y="600" type="curve" smooth="yes"/>
      <point x="442" y="600"/>
      <point x="458" y="599"/>
      <point x="474" y="597" type="curve"/>
      <point x="474" y="708" type="line"/>
      <point x="453" y="711"/>
      <point x="430" y="712"/>
      <point x="415" y="712" type="curve" smooth="yes"/>
      <point x="309" y="712"/>
      <point x="246" y="663"/>
      <point x="220" y="554" type="curve" smooth="yes"/>
      <point x="127" y="158" type="line" smooth="yes"/>
      <point x="118" y="118"/>
      <point x="100" y="100"/>
      <point x="53" y="100" type="curve" smooth="yes"/>
      <point x="41" y="100"/>
      <point x="30" y="101"/>
      <point x="11" y="104" type="curve"/>
      <point x="11" y="-7" type="line"/>
      <point x="28" y="-10"/>
      <point x="50" y="-12"/>
      <point x="71" y="-12" type="curve" smooth="yes"/>
      <point x="169" y="-12"/>
      <point x="239" y="36"/>
    </contour>
  </outline>
</glyph>
<glyph name="commaturnedabovecmb" format="2">
  <advance width="600"/>
  <unicode hex="0312"/>
  <anchor x="300" y="597" name="_center"/>
  <outline>
    <contour>
      <point x="372" y="564" type="line"/>
      <point x="372" y="700" type="line"/>
      <point x="306" y="700" type="line"/>
      <point x="306" y="702" type="line" smooth="yes"/>
      <point x="306.0" y="741.0"/>
      <point x="327" y="771"/>
      <point x="384" y="771" type="curve"/>
      <point x="384" y="834" type="line"/>
      <point x="275" y="834"/>
      <point x="228" y="773.0"/>
      <point x="228" y="702" type="curve" smooth="yes"/>
      <point x="228" y="564" type="line"/>
    </contour>
  </outline>
</glyph>
<glyph name="horncmb" format="2">
  <advance width="600"/>
  <unicode hex="031B"/>
  <anchor x="204" y="500" name="_horn"/>
  <outline>
    <contour>
      <point x="301" y="586" type="line"/>
      <point x="306" y="569"/>
      <point x="308" y="552"/>
      <point x="308" y="538" type="curve" smooth="yes"/>
      <point x="308" y="506"/>
      <point x="293.0" y="500.0"/>
      <point x="261" y="500" type="curve" smooth="yes"/>
      <point x="204" y="500" type="line"/>
      <point x="204" y="402" type="line"/>
      <point x="273" y="402" type="line" smooth="yes"/>
      <point x="383.0" y="402.0"/>
      <point x="410" y="441"/>
      <point x="410" y="528" type="curve" smooth="yes"/>
      <point x="410" y="548"/>
      <point x="407" y="568"/>
      <point x="401" y="586" type="curve"/>
    </contour>
  </outline>
</glyph>
<glyph name="emdash" format="2">
  <advance width="966"/>
  <unicode hex="2014"/>
  <outline>
    <contour>
      <point x="64" y="238" type="line"/>
      <point x="902" y="238" type="line"/>
      <point x="902" y="354" type="line"/>
      <point x="64" y="354" type="line"/>
    </contour>
  </outline>
</glyph>
<glyph name="interrobang" format="2">
  <advance width="489"/>
  <unicode hex="203D"/>
  <outline>
    <contour>
      <point x="197" y="217" type="line"/>
      <point x="303" y="217" type="line"/>
      <point x="303" y="235" type="line" smooth="yes"/>
      <point x="303" y="282"/>
      <point x="321" y="308"/>
      <point x="368" y="343" type="curve" smooth="yes"/>
      <point x="426" y="387"/>
      <point x="468" y="432"/>
      <point x="468" y="523" type="curve" smooth="yes"/>
      <point x="468" y="635"/>
      <point x="380" y="712"/>
      <point x="246" y="712" type="curve" smooth="yes"/>
      <point x="113" y="712"/>
      <point x="23" y="635"/>
      <point x="4" y="517" type="curve"/>
      <point x="126" y="488" type="line"/>
      <point x="133" y="550"/>
      <point x="165" y="603"/>
      <point x="237" y="603" type="curve" smooth="yes"/>
      <point x="300" y="603"/>
      <point x="334" y="565"/>
      <point x="334" y="518" type="curve" smooth="yes"/>
      <point x="334" y="483"/>
      <point x="326" y="458"/>
      <point x="274" y="411" type="curve" smooth="yes"/>
      <point x="215" y="358"/>
      <point x="197" y="324"/>
      <point x="197" y="243" type="curve" smooth="yes"/>
    </contour>
    <contour>
      <point x="297" y="680" type="line"/>
      <point x="169" y="680" type="line"/>
      <point x="184" y="217" type="line"/>
      <point x="272" y="217" type="line"/>
    </contour>
    <component base="period" xOffset="108"/>
  </outline>
</glyph>
<glyph name="colonmonetary" format="2">
  <advance width="577"/>
  <unicode hex="20A1"/>
  <outline>
    <contour>
      <point x="547" y="490" type="line"/>
      <point x="524" y="620"/>
      <point x="437" y="712"/>
      <point x="307" y="712" type="curve" smooth="yes"/>
      <point x="129" y="712"/>
      <point x="33" y="569"/>
      <point x="33" y="350" type="curve" smooth="yes"/>
      <point x="33" y="131"/>
      <point x="129" y="-12"/>
      <point x="307" y="-12" type="curve" smooth="yes"/>
      <point x="437" y="-12"/>
      <point x="527" y="81"/>
      <point x="548" y="212" type="curve"/>
      <point x="430" y="236" type="line"/>
      <point x="413" y="141"/>
      <point x="368" y="102"/>
      <point x="307" y="102" type="curve" smooth="yes"/>
      <point x="224" y="102"/>
      <point x="165" y="174"/>
      <point x="165" y="350" type="curve" smooth="yes"/>
      <point x="165" y="526"/>
      <point x="224" y="598"/>
      <point x="307" y="598" type="curve" smooth="yes"/>
      <point x="368" y="598"/>
      <point x="412" y="562"/>
      <point x="429" y="466" type="curve"/>
    </contour>
    <contour>
      <point x="154" y="-112" type="line"/>
      <point x="233" y="-112" type="line"/>
      <point x="316" y="797" type="line"/>
      <point x="237" y="797" type="line"/>
    </contour>
    <contour>
      <point x="263" y="-112" type="line"/>
      <point x="342" y="-112" type="line"/>
      <point x="425" y="797" type="line"/>
      <point x="346" y="797" type="line"/>
    </contour>
  </outline>
</glyph>
<glyph name="notequal" format="2">
  <advance width="576"/>
  <unicode hex="2260"/>
  <outline>
    <contour>
      <point x="68" y="70" type="line"/>
      <point x="192" y="70" type="line"/>
      <point x="508" y="610" type="line"/>
      <point x="384" y="610" type="line"/>
    </contour>
    <component base="equal"/>
  </outline>
</glyph>
<glyph name="bar.uc" format="2">
  <advance width="243"/>
  <outline>
    <contour>
      <point x="50" y="745" type="line"/>
      <point x="50" y="-83" type="line"/>
      <point x="193" y="-83" type="line"/>
      <point x="193" y="745" type="line"/>
    </contour>
  </outline>
</glyph>
<glyph name="bracketleft.uc" format="2">
  <advance width="352"/>
  <outline>
    <contour>
      <point x="72" y="-83" type="line"/>
      <point x="337" y="-83" type="line"/>
      <point x="337" y="24" type="line"/>
      <point x="217" y="24" type="line"/>
      <point x="217" y="638" type="line"/>
      <point x="337" y="638" type="line"/>
      <point x="337" y="745" type="line"/>
      <point x="72" y="745" type="line"/>
    </contour>
  </outline>
</glyph>
<glyph name="bullet.medium" format="2">
  <advance width="558"/>
  <outline>
    <contour>
      <point x="279" y="550" type="curve" smooth="yes"/>
      <point x="147" y="550"/>
      <point x="38" y="441"/>
      <point x="38" y="309" type="curve" smooth="yes"/>
      <point x="38" y="177"/>
      <point x="147" y="68"/>
      <point x="279" y="68" type="curve" smooth="yes"/>
      <point x="411" y="68"/>
      <point x="520" y="177"/>
      <point x="520" y="309" type="curve" smooth="yes"/>
      <point x="520" y="441"/>
      <point x="411" y="550"/>
    </contour>
  </outline>
</glyph>
<glyph name="four.num" format="2">
  <advance width="387"/>
  <outline>
    <contour>
      <point x="306" y="700" type="line"/>
      <point x="180" y="700" type="line"/>
      <point x="17" y="480" type="line"/>
      <point x="17" y="389" type="line"/>
      <point x="368" y="389" type="line"/>
      <point x="368" y="476" type="line"/>
      <point x="65" y="476" type="line"/>
      <point x="96" y="445" type="line"/>
      <point x="269" y="678" type="line"/>
      <point x="197" y="678" type="line"/>
      <point x="197" y="308" type="line"/>
      <point x="306" y="308" type="line"/>
    </contour>
  </outline>
</glyph>
<glyph name="six.num" format="2">
  <advance width="365"/>
  <outline>
    <contour>
      <point x="186" y="302" type="curve" smooth="yes"/>
      <point x="291" y="302"/>
      <point x="341" y="367"/>
      <point x="341" y="439" type="curve" smooth="yes"/>
      <point x="341" y="519"/>
      <point x="294" y="569"/>
      <point x="220" y="569" type="curve" smooth="yes"/>
      <point x="159" y="569"/>
      <point x="117" y="535"/>
      <point x="106" y="479" type="curve"/>
      <point x="136" y="479" type="line"/>
      <point x="136" y="513" type="line" smooth="yes"/>
      <point x="136" y="587"/>
      <point x="166" y="618"/>
      <point x="197" y="618" type="curve" smooth="yes"/>
      <point x="214" y="618"/>
      <point x="225" y="609"/>
      <point x="226" y="590" type="curve"/>
      <point x="335" y="578" type="line"/>
      <point x="332" y="656"/>
      <point x="283" y="706"/>
      <point x="200" y="706" type="curve" smooth="yes"/>
      <point x="93" y="706"/>
      <point x="26" y="622"/>
      <point x="26" y="493" type="curve" smooth="yes"/>
      <point x="26" y="438"/>
      <point x="36" y="394"/>
      <point x="56" y="366" type="curve" smooth="yes"/>
      <point x="84" y="326"/>
      <point x="123" y="302"/>
    </contour>
    <contour>
      <point x="186" y="383" type="curve" smooth="yes"/>
      <point x="159" y="383"/>
      <point x="141" y="405"/>
      <point x="141" y="438" type="curve" smooth="yes"/>
      <point x="141" y="471"/>
      <point x="159" y="493"/>
      <point x="186" y="493" type="curve" smooth="yes"/>
      <point x="214" y="493"/>
      <point x="231" y="471"/>
      <point x="231" y="438" type="curve" smooth="yes"/>
      <point x="231" y="405"/>
      <point x="214" y="383"/>
    </contour>
  </outline>
</glyph>
<glyph name="yen.tab" format="2">
  <advance width="600"/>
  <outline>
    <contour>
      <point x="346" y="386" type="line"/>
      <point x="153" y="700" type="line"/>
      <point x="3" y="700" type="line"/>
      <point x="227" y="338" type="line"/>
      <point x="227" y="0" type="line"/>
      <point x="371" y="0" type="line"/>
      <point x="371" y="338" type="line"/>
      <point x="595" y="700" type="line"/>
      <point x="446" y="700" type="line"/>
      <point x="253" y="386" type="line"/>
    </contour>
    <contour>
      <point x="59" y="316" type="line"/>
      <point x="539" y="316" type="line"/>
      <point x="539" y="414" type="line"/>
      <point x="59" y="414" type="line"/>
    </contour>
    <contour>
      <point x="59" y="163" type="line"/>
      <point x="539" y="163" type="line"/>
      <point x="539" y="261" type="line"/>
      <point x="59" y="261" type="line"/>
    </contour>
  </outline>
</glyph>
